<?xml version="1.0" standalone="no"?>
<!DOCTYPE svg PUBLIC "-//W3C//DTD SVG 20010904//EN"
 "http://www.w3.org/TR/2001/REC-SVG-20010904/DTD/svg10.dtd">
<svg version="1.0" xmlns="http://www.w3.org/2000/svg"
 width="369.000000pt" height="362.000000pt" viewBox="0 0 369.000000 362.000000"
 preserveAspectRatio="xMidYMid meet">
<metadata>
Created by potrace 1.16, written by Peter Selinger 2001-2019
</metadata>
<g transform="translate(0.000000,362.000000) scale(0.100000,-0.100000)"
fill="#000000" stroke="none">
<path d="M0 1810 l0 -1810 633 0 634 0 1 30 c0 17 -4 28 -9 25 -5 -4 -9 -5
-10 -3 0 2 -3 29 -5 62 -3 32 -11 64 -17 71 -35 36 -57 67 -57 78 0 7 -13 33
-28 58 -16 25 -32 51 -35 59 -4 12 -6 11 -6 -2 -1 -9 4 -20 9 -23 6 -3 10 -16
10 -28 0 -16 -7 -9 -25 25 -15 28 -22 54 -18 64 4 11 3 15 -4 11 -19 -12 -168
314 -193 422 -7 29 -10 77 -7 106 5 51 53 173 63 162 3 -2 14 -40 25 -83 33
-132 35 -137 69 -199 77 -141 239 -314 510 -541 134 -112 215 -171 378 -273
30 -19 49 -21 172 -21 76 0 145 3 154 6 9 3 16 16 17 28 1 19 2 18 8 -4 6 -22
13 -25 60 -28 47 -3 52 -1 47 15 -3 10 1 39 9 63 l15 45 -5 -55 -4 -55 22 45
c12 25 28 49 35 53 6 4 12 15 12 24 0 10 6 13 16 9 12 -5 15 0 13 22 -2 15 -7
33 -12 39 -13 18 9 41 41 45 26 3 27 5 25 57 -2 72 -9 87 -28 71 -19 -15 -27
-10 -15 9 5 8 27 14 54 15 40 1 46 4 46 23 0 16 -5 20 -20 16 -18 -5 -20 -1
-19 33 0 22 4 48 8 59 8 20 8 20 15 -1 4 -12 6 -26 5 -30 -1 -5 -1 -17 0 -26
1 -17 2 -17 20 0 18 17 18 18 0 50 -24 42 -24 50 1 27 11 -10 23 -15 27 -11 4
4 3 10 -3 14 -10 7 -43 81 -49 112 -2 8 -6 23 -10 33 -9 22 4 22 22 0 40 -50
135 -203 150 -243 9 -25 32 -71 51 -104 29 -50 34 -65 30 -106 -5 -52 -29
-105 -89 -193 l-39 -57 495 0 495 0 0 1810 0 1810 -1845 0 -1845 0 0 -1810z
m3538 1718 c-32 -7 -60 -7 -85 0 -34 9 -28 10 47 10 81 0 83 -1 38 -10z
m-1605 -428 c-3 -11 -7 -20 -9 -20 -2 0 -4 9 -4 20 0 11 4 20 9 20 5 0 7 -9 4
-20z m-475 -47 c2 -7 -3 -13 -12 -13 -9 0 -16 -4 -16 -10 0 -5 13 -7 29 -4 18
4 42 0 61 -10 18 -9 37 -13 43 -9 6 4 8 0 4 -11 -4 -10 -3 -15 3 -11 6 3 13
-1 16 -9 10 -26 38 -18 53 15 9 21 16 27 21 19 6 -9 11 -7 20 6 10 16 11 16 6
2 -7 -22 2 -48 16 -48 7 0 6 5 -1 14 -9 11 -6 15 14 19 19 3 25 1 21 -9 -3 -7
-1 -16 4 -19 6 -4 10 -1 10 6 0 7 8 5 21 -7 19 -17 89 -27 89 -12 0 3 9 4 20
1 11 -3 20 -8 20 -12 0 -10 80 -7 88 4 10 14 42 18 42 5 0 -6 5 -8 10 -5 6 3
10 -2 10 -12 0 -12 3 -14 8 -6 6 9 13 5 26 -12 10 -14 22 -22 27 -19 5 3 9 0
9 -6 0 -6 7 -18 15 -26 8 -9 15 -11 15 -5 0 18 20 12 21 -6 1 -17 2 -17 6 0 2
9 9 17 14 17 5 0 9 7 9 15 0 8 4 15 9 15 5 0 11 8 13 17 2 13 8 8 21 -17 l18
-35 -5 35 -6 35 21 -28 c11 -15 25 -25 30 -21 5 3 9 -1 9 -9 0 -18 66 -30 90
-17 11 6 21 5 28 -2 9 -9 12 -9 12 -1 0 7 14 9 41 6 28 -4 44 -2 49 7 6 10 12
11 22 3 7 -6 27 -9 43 -8 17 1 32 -2 35 -7 3 -4 19 -4 35 1 24 6 34 4 51 -14
11 -12 27 -25 35 -29 9 -4 10 -8 3 -11 -8 -4 -9 -18 -3 -43 4 -20 11 -54 14
-74 3 -21 10 -38 15 -38 6 0 10 -10 10 -22 0 -13 7 -32 15 -42 18 -24 19 -13
3 53 -9 41 -9 54 2 64 10 10 12 8 7 -10 -4 -16 -1 -23 10 -23 10 0 13 -6 9
-16 -3 -8 -1 -36 5 -60 11 -42 10 -46 -10 -61 -14 -9 -20 -21 -16 -31 3 -8 1
-18 -5 -22 -22 -14 -30 -204 -10 -264 5 -17 11 -48 12 -68 2 -21 6 -38 11 -38
4 0 7 -4 7 -9 0 -17 -36 -22 -66 -10 -37 14 -125 19 -141 7 -10 -8 -134 -10
-303 -6 -25 1 -53 -3 -64 -7 -16 -7 -17 -5 -12 16 l7 24 -20 -25 c-11 -14 -26
-32 -34 -41 -7 -8 -12 -22 -10 -30 2 -8 -2 -4 -9 9 -6 13 -17 21 -25 18 -7 -3
-13 -2 -13 3 0 11 -44 40 -67 45 -10 1 -27 6 -38 10 -37 14 -44 15 -50 6 -4
-6 -19 -3 -38 7 -22 11 -62 17 -127 19 -52 2 -110 5 -129 8 -18 3 -45 0 -60
-8 -17 -8 -66 -12 -148 -12 -67 1 -119 -2 -117 -6 3 -4 -5 -12 -16 -18 -11 -6
-20 -9 -21 -8 -9 40 -6 58 12 58 17 0 18 3 7 20 -13 21 -52 27 -63 10 -9 -15
-25 -12 -25 4 0 8 7 16 15 20 19 7 20 26 1 26 -18 0 -14 69 5 81 10 6 9 13 -6
30 l-20 22 23 -6 c29 -7 38 13 21 44 -8 16 -9 24 -1 27 6 2 9 9 6 17 -3 7 -1
16 5 20 17 10 13 33 -7 40 -13 4 -19 16 -20 37 -1 23 -9 38 -27 51 -21 16 -25
25 -20 47 5 24 3 29 -17 32 -13 2 -24 11 -26 22 -3 13 0 16 9 11 9 -6 11 0 6
24 -5 23 -3 33 8 37 8 4 15 11 15 17 0 6 7 18 14 26 21 23 4 50 -18 32 -10 -9
-16 -10 -16 -2 0 18 43 40 73 37 26 -3 31 3 28 34 -2 12 0 12 7 2 7 -11 10
-10 16 3 3 9 10 13 16 10 5 -3 10 3 10 14 0 11 8 26 18 33 23 16 34 45 21 53
-5 4 -7 11 -3 16 8 14 56 7 62 -8z m-590 -904 c20 -23 45 -62 55 -87 19 -47
18 -49 -17 -65 -3 -1 -34 27 -71 62 -52 50 -65 69 -63 90 6 55 46 55 96 0z
m325 -9 c3 -11 11 -20 17 -20 7 0 10 7 6 15 -5 13 0 15 31 9 26 -5 34 -4 29 5
-5 7 1 11 13 11 25 0 29 -37 5 -47 -13 -5 -13 -7 -2 -15 10 -7 9 -11 -6 -23
-18 -14 -18 -15 -2 -15 9 0 14 -5 11 -10 -4 -6 -11 -8 -16 -5 -5 4 -9 2 -9 -3
0 -5 -9 -12 -20 -15 -21 -5 -28 -27 -9 -27 6 0 8 -9 4 -20 -7 -21 9 -28 21 -9
4 7 12 -1 21 -19 8 -17 30 -38 49 -47 18 -8 37 -23 42 -31 8 -14 15 -14 66 -1
54 13 57 13 67 -5 6 -11 8 -29 5 -41 -6 -22 17 -46 46 -47 9 0 18 -5 20 -12 6
-16 188 -20 207 -5 7 7 26 10 42 9 23 -3 28 0 23 12 -5 12 -2 15 10 10 9 -3
27 1 41 10 13 9 30 16 38 16 7 0 20 11 27 25 16 30 30 32 30 5 0 -25 19 -18
65 23 19 17 35 40 35 51 0 28 52 88 71 81 8 -3 20 -20 28 -38 7 -17 19 -45 26
-62 7 -16 12 -52 11 -80 -1 -27 2 -59 7 -69 9 -18 10 -18 19 -3 5 10 6 23 3
30 -4 6 1 3 9 -7 14 -17 16 -18 16 -3 0 21 2 21 46 2 24 -10 34 -20 31 -29 -6
-16 16 -29 48 -30 11 -1 19 -7 18 -13 -3 -14 55 -48 65 -39 3 3 0 6 -6 6 -7 0
-12 5 -12 10 0 19 31 10 41 -13 13 -29 51 -55 57 -38 2 6 11 11 20 11 20 0 5
16 -23 24 -11 3 -4 4 15 2 19 -2 43 -6 53 -11 12 -5 17 -3 17 9 0 9 3 15 8 13
4 -1 8 0 8 3 2 9 83 87 118 114 45 34 50 25 50 -84 0 -99 -10 -152 -25 -129
-7 11 -9 9 -9 -9 0 -15 -9 -26 -25 -32 -14 -5 -25 -14 -25 -20 0 -5 -7 -10
-15 -10 -9 0 -12 -6 -8 -16 5 -14 -2 -35 -29 -88 -7 -13 -6 -21 2 -26 9 -6 7
-10 -6 -18 -15 -8 -18 -22 -17 -81 2 -72 -4 -82 -36 -62 -8 5 -10 14 -6 21 5
8 1 18 -11 27 -15 11 -16 15 -5 22 23 15 -6 23 -55 15 -37 -5 -44 -9 -38 -23
4 -9 9 -30 11 -47 3 -21 13 -35 29 -43 13 -6 24 -17 24 -25 0 -23 -26 -26 -49
-5 -22 21 -30 12 -8 -10 10 -11 9 -13 -6 -8 -11 4 -16 3 -12 -3 6 -10 -15 -14
-43 -11 -8 1 -20 -3 -27 -9 -18 -15 -38 -3 -32 20 3 13 0 16 -14 13 -11 -3
-16 -11 -13 -21 3 -10 -2 -4 -12 12 -15 26 -17 28 -26 12 -14 -25 -48 -58 -48
-47 0 6 5 13 10 16 6 3 10 15 10 25 0 11 9 24 20 30 11 6 19 18 18 28 -5 58 4
112 21 133 l19 24 22 -25 22 -25 -6 25 c-3 14 -6 37 -6 53 0 15 -6 27 -13 27
-7 0 -24 11 -39 25 -34 31 -43 32 -24 3 23 -38 14 -71 -23 -82 -25 -7 -35 -6
-42 5 -8 12 -12 10 -27 -7 -10 -12 -40 -26 -71 -32 -49 -11 -59 -10 -117 13
-35 14 -87 30 -116 35 -28 6 -56 16 -60 23 -4 6 -8 8 -8 2 0 -5 -7 3 -15 19
-18 34 -19 68 -4 83 6 6 10 16 8 22 -5 13 -95 -45 -92 -59 2 -6 -7 -10 -20
-10 -16 0 -26 -9 -35 -32 -15 -41 -3 -54 34 -36 47 23 61 14 68 -46 6 -41 14
-61 36 -82 16 -16 30 -35 30 -43 0 -8 3 -12 6 -8 10 9 74 -48 75 -68 0 -5 14
-17 32 -25 42 -20 41 -42 -3 -52 -26 -5 -38 -3 -46 8 -15 18 -24 18 -40 -3
-13 -17 -13 -17 -14 0 0 9 -6 18 -12 19 -7 0 -18 2 -25 2 -6 1 -20 9 -31 19
-14 13 -27 16 -47 11 -20 -5 -26 -4 -21 5 6 10 -6 15 -26 12 -5 0 -8 7 -8 17
0 13 -6 18 -22 16 -13 -1 -41 -3 -63 -5 -32 -2 -34 -3 -12 -6 15 -2 25 -9 22
-14 -4 -5 -17 -6 -31 -3 -17 4 -26 1 -30 -10 -3 -9 -17 -16 -30 -16 -18 0 -22
4 -17 18 5 13 1 12 -16 -5 -26 -27 -43 -30 -39 -5 2 13 -5 18 -29 20 -26 3
-33 8 -33 24 0 20 1 21 20 3 18 -17 25 -14 21 9 -1 5 4 13 11 17 27 17 -2 20
-36 4 l-37 -18 -24 29 -24 28 -19 -24 c-13 -16 -23 -20 -33 -14 -8 4 -24 7
-36 5 -19 -2 -23 2 -23 23 0 14 -9 35 -20 46 -11 11 -17 26 -14 35 4 8 1 15
-5 15 -6 0 -11 7 -11 15 0 8 -4 15 -10 15 -5 0 -10 9 -10 20 0 11 -4 20 -10
20 -5 0 -10 8 -10 18 0 21 46 69 57 59 3 -4 12 -2 20 5 10 8 17 8 25 0 6 -6
17 -8 25 -5 11 4 13 0 7 -21 -6 -27 -6 -28 44 -30 20 -1 28 4 28 17 0 19 -11
23 -22 6 -10 -17 -26 5 -18 25 4 11 9 14 13 7 4 -6 22 -14 41 -18 l34 -6 -22
28 c-12 15 -22 34 -22 42 0 11 -7 13 -25 9 -22 -6 -25 -3 -25 18 0 19 4 24 16
19 12 -4 15 -2 12 8 -3 8 -15 13 -27 11 -25 -4 -54 15 -45 29 3 5 0 9 -5 9 -6
0 -11 5 -11 11 0 6 -16 26 -36 44 -20 19 -33 39 -29 45 3 5 -1 10 -9 10 -19 0
-21 16 -3 23 10 4 10 7 0 18 -7 7 -13 20 -13 29 -1 15 -33 60 -44 60 -4 0 -4
-12 -1 -27 4 -22 4 -24 -3 -8 -5 11 -8 38 -6 60 6 67 4 99 -8 106 -8 5 -8 15
0 38 6 17 7 31 2 31 -9 0 -8 13 3 43 4 9 9 24 12 32 7 22 42 18 48 -5z m-92
-232 c11 -21 11 -22 -4 -9 -10 7 -17 17 -17 22 0 15 9 10 21 -13z m-246 -70
c16 -65 48 -114 66 -102 4 2 11 -1 14 -7 4 -6 15 7 26 31 10 23 23 39 29 35
15 -9 12 -72 -5 -89 -8 -8 -15 -20 -15 -27 0 -9 -4 -8 -15 1 -13 11 -15 7 -15
-28 0 -23 5 -44 11 -48 6 -3 8 -17 5 -29 -3 -13 -2 -27 4 -30 17 -11 8 -125
-11 -125 -15 0 -84 52 -81 61 1 5 -4 9 -10 10 -7 0 -24 14 -37 30 -23 29 -24
38 -27 207 l-3 177 24 1 c21 2 25 -5 40 -68z m975 51 c13 -7 12 -8 -2 -9 -10
0 -18 -5 -18 -11 0 -6 9 -8 20 -4 33 11 13 -21 -23 -36 -42 -18 -199 -19 -204
-1 -3 6 -11 12 -19 12 -8 0 -14 6 -14 14 0 9 8 13 23 10 12 -2 16 -2 10 2 -7
3 -13 12 -13 19 0 11 16 12 74 8 45 -4 80 -1 92 5 19 11 44 8 74 -9z m-293
-51 c-3 -8 -6 -5 -6 6 -1 11 2 17 5 13 3 -3 4 -12 1 -19z m1027 -3 c54 0 91
-5 93 -12 5 -13 -32 -24 -44 -12 -5 5 -17 3 -28 -5 -15 -11 -27 -11 -68 0 -35
9 -55 10 -66 3 -14 -9 -14 -10 2 -5 9 3 17 1 17 -5 0 -5 11 -7 25 -3 26 6 36
-10 13 -20 -7 -2 8 -3 34 -1 25 1 52 6 58 10 8 5 11 0 8 -16 -2 -16 -11 -25
-25 -27 -13 -2 -23 2 -23 8 0 6 -12 10 -28 8 -28 -3 -151 50 -152 65 0 5 9 5
20 2 11 -4 20 -3 19 2 -4 21 3 25 29 17 15 -4 67 -8 116 -9z m-214 -5 c0 -5
-2 -10 -4 -10 -3 0 -8 5 -11 10 -3 6 -1 10 4 10 6 0 11 -4 11 -10z m60 -100
c0 -5 -4 -10 -10 -10 -5 0 -10 5 -10 10 0 6 5 10 10 10 6 0 10 -4 10 -10z m55
-30 c3 -5 1 -10 -4 -10 -6 0 -11 5 -11 10 0 6 2 10 4 10 3 0 8 -4 11 -10z
m166 -453 c-1 -12 -15 -9 -19 4 -3 6 1 10 8 8 6 -3 11 -8 11 -12z m-41 -7 c0
-5 -2 -10 -4 -10 -3 0 -8 5 -11 10 -3 6 -1 10 4 10 6 0 11 -4 11 -10z m-420
-170 c0 -5 -15 -10 -32 -10 -25 0 -29 3 -18 10 20 13 50 13 50 0z m130 0 c0
-5 -5 -10 -11 -10 -5 0 -7 5 -4 10 3 6 8 10 11 10 2 0 4 -4 4 -10z m-538 -102
c26 0 50 -3 53 -8 3 -5 19 -7 34 -4 16 3 64 -2 107 -11 113 -24 119 -25 226
-28 54 -2 101 -6 104 -10 11 -11 -20 -78 -34 -72 -7 2 -23 -1 -35 -9 -17 -11
-38 -12 -97 -4 -41 5 -95 7 -120 5 -35 -4 -55 1 -95 21 -27 15 -57 25 -67 24
-9 -2 -24 7 -33 20 l-17 23 6 -27 c5 -21 3 -28 -9 -28 -8 0 -15 -7 -15 -15 0
-8 -4 -15 -10 -15 -19 0 -10 -20 13 -29 12 -5 30 -18 41 -29 10 -12 31 -24 47
-27 16 -4 29 -11 29 -15 0 -14 72 -30 141 -32 35 -1 71 -5 79 -9 8 -4 39 -12
69 -18 45 -9 58 -9 75 3 39 28 52 41 59 59 3 9 13 17 20 17 9 0 14 11 14 28 0
37 30 114 50 130 24 18 46 15 61 -8 8 -13 9 -26 3 -37 -5 -10 -12 -26 -15 -35
-3 -11 -11 -15 -21 -12 -11 5 -14 2 -9 -10 4 -10 1 -16 -9 -16 -10 0 -17 -15
-21 -45 -4 -24 -11 -47 -17 -50 -5 -4 -9 -17 -9 -31 0 -14 -6 -24 -14 -24 -13
0 -25 -17 -22 -33 0 -5 -7 -13 -16 -18 -10 -6 -18 -18 -18 -28 0 -19 -22 -43
-36 -40 -14 3 -64 -20 -64 -29 0 -5 -11 -14 -25 -20 -18 -8 -25 -8 -25 -1 0 6
-7 9 -15 5 -10 -3 -15 1 -15 14 0 10 -4 22 -10 25 -5 3 -10 1 -10 -5 0 -6 -10
-11 -22 -10 -41 4 -59 0 -53 -10 4 -6 -10 -10 -34 -10 -23 0 -41 -5 -41 -10 0
-7 -6 -7 -20 0 -11 6 -20 17 -20 25 0 18 -14 19 -40 3 -15 -10 -22 -9 -38 5
-10 9 -23 17 -29 17 -6 0 -13 10 -16 22 -5 17 -9 19 -20 10 -14 -12 -37 5 -88
65 -14 17 -35 36 -47 42 -13 7 -22 21 -22 36 0 13 -4 27 -10 30 -5 3 -10 17
-10 31 0 13 -4 24 -10 24 -5 0 -10 5 -10 11 0 6 9 8 20 4 11 -4 20 -2 20 4 0
6 -4 11 -8 11 -9 0 -8 33 3 75 8 30 47 75 66 75 5 0 9 5 9 11 0 6 8 7 23 3 12
-5 43 -7 69 -6z"/>
<path d="M1330 2890 c0 -19 3 -21 12 -12 9 9 9 15 0 24 -9 9 -12 7 -12 -12z"/>
<path d="M1250 2880 c0 -5 5 -10 10 -10 6 0 10 5 10 10 0 6 -4 10 -10 10 -5 0
-10 -4 -10 -10z"/>
<path d="M1540 2169 c0 -5 5 -7 10 -4 6 3 10 8 10 11 0 2 -4 4 -10 4 -5 0 -10
-5 -10 -11z"/>
<path d="M1210 1950 c0 -5 5 -10 11 -10 5 0 7 5 4 10 -3 6 -8 10 -11 10 -2 0
-4 -4 -4 -10z"/>
<path d="M1490 1840 c0 -5 5 -10 11 -10 5 0 7 5 4 10 -3 6 -8 10 -11 10 -2 0
-4 -4 -4 -10z"/>
<path d="M1790 1750 c0 -5 4 -10 9 -10 6 0 13 5 16 10 3 6 -1 10 -9 10 -9 0
-16 -4 -16 -10z"/>
<path d="M2248 1724 c-5 -4 -8 -34 -8 -66 0 -54 1 -58 16 -44 12 13 14 26 7
67 -4 28 -11 47 -15 43z"/>
<path d="M2311 1668 c0 -10 -8 -18 -16 -18 -8 0 -15 -7 -15 -15 0 -17 9 -19
28 -6 8 5 12 19 9 32 -2 14 -5 17 -6 7z"/>
<path d="M2299 1548 c-8 -7 -12 -12 -10 -11 2 2 12 -11 22 -27 26 -42 53 -41
44 3 -4 17 -9 35 -12 40 -6 11 -27 8 -44 -5z"/>
<path d="M1350 1280 c0 -6 7 -10 15 -10 8 0 15 2 15 4 0 2 -7 6 -15 10 -8 3
-15 1 -15 -4z"/>
<path d="M2510 1239 c0 -5 5 -7 10 -4 6 3 10 8 10 11 0 2 -4 4 -10 4 -5 0 -10
-5 -10 -11z"/>
<path d="M800 1693 c0 -18 38 -59 46 -50 4 4 -4 20 -19 35 -15 14 -27 22 -27
15z"/>
<path d="M844 1535 c-17 -13 -17 -14 -2 -15 9 0 20 5 23 11 11 17 0 20 -21 4z"/>
<path d="M1663 1863 c9 -2 23 -2 30 0 6 3 -1 5 -18 5 -16 0 -22 -2 -12 -5z"/>
<path d="M1717 1863 c-4 -3 -7 -11 -7 -17 0 -6 5 -5 12 2 6 6 9 14 7 17 -3 3
-9 2 -12 -2z"/>
<path d="M1638 1833 c12 -2 30 -2 40 0 9 3 -1 5 -23 4 -22 0 -30 -2 -17 -4z"/>
<path d="M2737 313 c-11 -10 -8 -61 3 -68 6 -3 19 -3 30 0 20 6 25 29 14 59
-6 16 -35 22 -47 9z"/>
<path d="M1316 143 c-9 -10 -7 -20 7 -35 6 -7 22 -34 34 -60 20 -42 27 -48 54
-48 l31 0 -19 28 c-54 81 -69 101 -84 110 -9 6 -20 8 -23 5z"/>
</g>
</svg>
